<svg width="29" height="31" viewBox="0 0 29 31" fill="none" xmlns="http://www.w3.org/2000/svg">
<path d="M8.7 18.4062C10.5578 18.4062 11.4511 19.375 14.5 19.375C17.5489 19.375 18.4357 18.4062 20.3 18.4062C25.1031 18.4062 29 22.0512 29 26.5437V28.0938C29 29.6982 27.6083 31 25.8929 31H3.10714C1.39174 31 0 29.6982 0 28.0938V26.5437C0 22.0512 3.89688 18.4062 8.7 18.4062ZM3.10714 28.0938H25.8929V26.5437C25.8929 23.6617 23.3813 21.3125 20.3 21.3125C19.3549 21.3125 17.8208 22.2812 14.5 22.2812C11.1533 22.2812 9.65156 21.3125 8.7 21.3125C5.61875 21.3125 3.10714 23.6617 3.10714 26.5437V28.0938ZM14.5 17.4375C9.35379 17.4375 5.17857 13.5322 5.17857 8.71875C5.17857 3.90527 9.35379 0 14.5 0C19.6462 0 23.8214 3.90527 23.8214 8.71875C23.8214 13.5322 19.6462 17.4375 14.5 17.4375ZM14.5 2.90625C11.0757 2.90625 8.28572 5.51582 8.28572 8.71875C8.28572 11.9217 11.0757 14.5312 14.5 14.5312C17.9243 14.5312 20.7143 11.9217 20.7143 8.71875C20.7143 5.51582 17.9243 2.90625 14.5 2.90625Z" fill="#34170E"/>
</svg>
