<svg width="35" height="33" viewBox="0 0 35 33" fill="none" xmlns="http://www.w3.org/2000/svg">
<path d="M34.6948 6.5489C34.5731 6.41162 34.4209 6.30121 34.249 6.22545C34.0771 6.14969 33.8897 6.11044 33.7 6.11047H7.56305L6.57797 1.00365C6.52371 0.722056 6.36636 0.467352 6.13334 0.28394C5.90032 0.100528 5.60643 4.13636e-05 5.30288 0H1.29615C0.952391 0 0.62271 0.128756 0.379634 0.357943C0.136558 0.58713 0 0.897975 0 1.22209C0 1.54621 0.136558 1.85706 0.379634 2.08625C0.62271 2.31543 0.952391 2.44419 1.29615 2.44419H4.2125L8.3537 23.8752C8.47569 24.5107 8.77359 25.1046 9.21726 25.5968C8.60491 26.1361 8.16292 26.8247 7.94032 27.5864C7.71772 28.348 7.7232 29.1529 7.95615 29.9118C8.18911 30.6707 8.64043 31.354 9.26008 31.8858C9.87973 32.4176 10.6435 32.7772 11.4667 32.9248C12.2898 33.0723 13.1403 33.002 13.9237 32.7216C14.7071 32.4413 15.3928 31.9618 15.9048 31.3365C16.4169 30.7111 16.7352 29.9642 16.8245 29.1787C16.9139 28.3931 16.7707 27.5996 16.4109 26.8861H23.7698C23.4798 27.4585 23.3298 28.0849 23.3307 28.7192C23.3307 29.5652 23.5968 30.3922 24.0953 31.0956C24.5938 31.799 25.3023 32.3472 26.1312 32.671C26.9602 32.9947 27.8723 33.0794 28.7523 32.9144C29.6323 32.7493 30.4406 32.342 31.0751 31.7438C31.7095 31.1456 32.1416 30.3834 32.3166 29.5537C32.4917 28.724 32.4018 27.8639 32.0585 27.0824C31.7151 26.3008 31.1337 25.6328 30.3876 25.1628C29.6416 24.6928 28.7645 24.4419 27.8673 24.4419H12.179C11.8754 24.4419 11.5815 24.3414 11.3485 24.158C11.1155 23.9745 10.9581 23.7198 10.9039 23.4383L10.3903 20.7756H29.1845C30.0951 20.7755 30.9768 20.474 31.6759 19.9238C32.3749 19.3736 32.847 18.6094 33.0098 17.7647L34.9799 7.55102C35.0133 7.37449 35.005 7.1932 34.9557 7.02001C34.9064 6.84682 34.8174 6.68598 34.6948 6.5489ZM14.2577 28.7192C14.2577 29.0818 14.1436 29.4362 13.93 29.7377C13.7164 30.0391 13.4127 30.2741 13.0575 30.4128C12.7022 30.5516 12.3113 30.5879 11.9341 30.5171C11.557 30.4464 11.2106 30.2718 10.9387 30.0155C10.6668 29.7591 10.4816 29.4325 10.4066 29.0769C10.3316 28.7213 10.3701 28.3527 10.5172 28.0177C10.6644 27.6828 10.9136 27.3965 11.2333 27.195C11.553 26.9936 11.9289 26.8861 12.3134 26.8861C12.8291 26.8861 13.3236 27.0792 13.6882 27.423C14.0528 27.7668 14.2577 28.233 14.2577 28.7192ZM29.8115 28.7192C29.8115 29.0818 29.6975 29.4362 29.4838 29.7377C29.2702 30.0391 28.9666 30.2741 28.6113 30.4128C28.256 30.5516 27.8651 30.5879 27.488 30.5171C27.1108 30.4464 26.7644 30.2718 26.4925 30.0155C26.2206 29.7591 26.0354 29.4325 25.9604 29.0769C25.8854 28.7213 25.9239 28.3527 26.071 28.0177C26.2182 27.6828 26.4674 27.3965 26.7871 27.195C27.1068 26.9936 27.4827 26.8861 27.8673 26.8861C28.3829 26.8861 28.8774 27.0792 29.2421 27.423C29.6067 27.7668 29.8115 28.233 29.8115 28.7192ZM30.4596 17.3278C30.4052 17.6101 30.2471 17.8654 30.0131 18.049C29.7791 18.2325 29.484 18.3325 29.1796 18.3314H9.91881L8.03452 8.55466H32.1462L30.4596 17.3278Z" fill="#34170E"/>
</svg>
