<svg width="283" height="53" viewBox="0 0 283 53" fill="none" xmlns="http://www.w3.org/2000/svg">
<path d="M256.5 1.61804L261.974 18.4656L262.086 18.8111H262.45H280.164L265.833 29.2234L265.539 29.4369L265.651 29.7824L271.125 46.6299L256.794 36.2176L256.5 36.0041L256.206 36.2176L241.875 46.6299L247.349 29.7824L247.461 29.4369L247.167 29.2234L232.836 18.8111H250.55H250.914L251.026 18.4656L256.5 1.61804Z" stroke="#34170E"/>
<path d="M26.5 1.61804L31.9741 18.4656L32.0863 18.8111H32.4496H50.1642L35.8328 29.2234L35.5389 29.4369L35.6512 29.7824L41.1253 46.6299L26.7939 36.2176L26.5 36.0041L26.2061 36.2176L11.8747 46.6299L17.3488 29.7824L17.4611 29.4369L17.1672 29.2234L2.83584 18.8111H20.5504H20.9137L21.0259 18.4656L26.5 1.61804Z" fill="#34170E" stroke="black"/>
<path d="M84.1089 1.61804L89.583 18.4656L89.6952 18.8111H90.0585H107.773L93.4417 29.2234L93.1478 29.4369L93.26 29.7824L98.7341 46.6299L84.4028 36.2176L84.1089 36.0041L83.815 36.2176L69.4836 46.6299L74.9577 29.7824L75.07 29.4369L74.7761 29.2234L60.4447 18.8111H78.1593H78.5225L78.6348 18.4656L84.1089 1.61804Z" fill="#34170E" stroke="#34170E"/>
<path d="M141.717 1.61804L147.191 18.4656L147.304 18.8111H147.667H165.381L151.05 29.2234L150.756 29.4369L150.868 29.7824L156.343 46.6299L142.011 36.2176L141.717 36.0041L141.423 36.2176L127.092 46.6299L132.566 29.7824L132.678 29.4369L132.384 29.2234L118.053 18.8111H135.768H136.131L136.243 18.4656L141.717 1.61804Z" fill="#34170E" stroke="#34170E"/>
<path d="M199.326 1.61804L204.8 18.4656L204.913 18.8111H205.276H222.99L208.659 29.2234L208.365 29.4369L208.477 29.7824L213.951 46.6299L199.62 36.2176L199.326 36.0041L199.032 36.2176L184.701 46.6299L190.175 29.7824L190.287 29.4369L189.993 29.2234L175.662 18.8111H193.377H193.74L193.852 18.4656L199.326 1.61804Z" fill="#34170E" stroke="#34170E"/>
<mask id="mask0_79_81" style="mask-type:alpha" maskUnits="userSpaceOnUse" x="231" y="0" width="51" height="48">
<path d="M256.5 0L262.45 18.3111H281.703L266.127 29.6279L272.076 47.9389L256.5 36.6221L240.924 47.9389L246.873 29.6279L231.297 18.3111H250.55L256.5 0Z" fill="#D9D9D9"/>
</mask>
<g mask="url(#mask0_79_81)">
<rect x="233.909" y="-13" width="44" height="61" transform="rotate(23.076 233.909 -13)" fill="#34170E"/>
</g>
</svg>
