<svg width="49" height="49" viewBox="0 0 49 49" fill="none" xmlns="http://www.w3.org/2000/svg">
<path d="M48.3284 14.4208L48.3286 14.4255C48.5571 18.4521 48.5571 30.5479 48.3286 34.5745L48.3285 34.5778C48.1348 38.4407 47.258 41.7747 44.5171 44.5162L44.5164 44.5169C41.7757 47.2687 38.4432 48.1455 34.5824 48.3283L34.5777 48.3286C30.552 48.5571 18.448 48.5571 14.4223 48.3286L14.419 48.3284C10.5577 48.1348 7.23462 47.2581 4.48226 44.5156C1.73107 41.7742 0.854436 38.4409 0.67161 34.5792L0.671632 34.5792L0.671367 34.5745C0.442878 30.5479 0.442878 18.4412 0.671367 14.4145L0.671377 14.4145L0.671543 14.4112C0.865237 10.5472 1.73153 7.21439 4.48226 4.47351C7.23441 1.73121 10.5681 0.854486 14.4176 0.671645L14.4176 0.671666L14.4223 0.671404C18.448 0.442865 30.552 0.442865 34.5777 0.671415L34.581 0.67158C38.443 0.865259 41.7761 1.74223 44.5171 4.48377L44.5177 4.48444C47.2689 7.22578 48.1456 10.5591 48.3284 14.4208ZM39.1302 44.0662L39.132 44.0655C41.4118 43.1511 43.1636 41.3996 44.0672 39.1284C44.7438 37.4279 44.9881 34.6223 45.0739 31.8686C45.1358 29.8804 45.1154 27.8617 45.0989 26.2285C45.0924 25.5837 45.0864 24.999 45.0864 24.5C45.0864 24.0009 45.0924 23.4163 45.0989 22.7717C45.1154 21.1394 45.1358 19.1226 45.0739 17.1355C44.9881 14.3828 44.7437 11.5777 44.0674 9.8721L44.0667 9.87033C43.1525 7.59013 41.4015 5.8379 39.1308 4.93403L39.1294 4.93349C37.43 4.26285 34.6259 4.01835 31.8727 3.93119C29.8699 3.86778 27.837 3.88728 26.1977 3.903C25.5674 3.90905 24.9953 3.91454 24.5055 3.91454C24.0065 3.91454 23.422 3.90862 22.7775 3.90209C21.1457 3.88556 19.1292 3.86514 17.1426 3.92708C14.3906 4.01289 11.586 4.25733 9.88071 4.93381L9.87895 4.93452C7.59918 5.84895 5.84737 7.60037 4.94373 9.87156L4.94319 9.87292C4.27272 11.5726 4.02828 14.3773 3.94113 17.1312C3.87774 19.1343 3.89724 21.1678 3.91295 22.8074C3.919 23.4378 3.92448 24.0101 3.92448 24.5C3.92448 24.9991 3.91857 25.5837 3.91204 26.2283C3.89552 27.8606 3.8751 29.8774 3.93702 31.8645C4.02281 34.6172 4.2672 37.4223 4.94351 39.1279L4.94422 39.1297C5.85841 41.4099 7.60943 43.1621 9.88017 44.066L9.88154 44.0665C11.5809 44.7372 14.385 44.9816 17.1383 45.0688C19.141 45.1322 21.174 45.1127 22.8132 45.097C23.4436 45.091 24.0157 45.0855 24.5055 45.0855C25.0045 45.0855 25.5889 45.0914 26.2334 45.0979C27.8653 45.1144 29.8817 45.1349 31.8683 45.0729C34.6204 44.9871 37.4249 44.7427 39.1302 44.0662ZM12.4453 24.5C12.4453 17.8221 17.8293 12.437 24.5055 12.437C31.1816 12.437 36.5656 17.8221 36.5656 24.5C36.5656 31.1779 31.1816 36.563 24.5055 36.563C17.8293 36.563 12.4453 31.1779 12.4453 24.5ZM15.8397 24.5C15.8397 29.2812 19.7368 33.1676 24.5055 33.1676C29.2741 33.1676 33.1712 29.2812 33.1712 24.5C33.1712 19.7192 29.2854 15.8324 24.5055 15.8324C19.7255 15.8324 15.8397 19.7192 15.8397 24.5ZM40.009 11.4231C40.009 12.775 38.9222 13.8534 37.5794 13.8534C36.2281 13.8534 35.1498 12.7665 35.1498 11.4231C35.1498 10.081 36.2378 8.99286 37.5794 8.99286C38.921 8.99286 40.009 10.081 40.009 11.4231Z" fill="#34170E" stroke="#34170E"/>
</svg>
