<svg width="38" height="38" viewBox="0 0 38 38" fill="none" xmlns="http://www.w3.org/2000/svg">
<path fill-rule="evenodd" clip-rule="evenodd" d="M2.375 19C2.375 9.81865 9.81865 2.375 19 2.375C28.1813 2.375 35.625 9.81865 35.625 19C35.625 28.1813 28.1813 35.625 19 35.625C9.81865 35.625 2.375 28.1813 2.375 19ZM19 4.75C11.1303 4.75 4.75 11.1303 4.75 19C4.75 26.8697 11.1303 33.25 19 33.25C26.8697 33.25 33.25 26.8697 33.25 19C33.25 11.1303 26.8697 4.75 19 4.75Z" fill="#34170E"/>
<path fill-rule="evenodd" clip-rule="evenodd" d="M12.1645 7.50755C13.7885 4.58401 16.1904 2.375 18.9999 2.375C21.8094 2.375 24.2114 4.58402 25.8353 7.50755C27.4974 10.4997 28.5497 14.5623 28.5497 19C28.5497 23.4377 27.4974 27.5003 25.8353 30.4925C24.2114 33.416 21.8094 35.625 18.9999 35.625C16.1904 35.625 13.7885 33.416 12.1645 30.4925C10.5024 27.5003 9.4502 23.4377 9.4502 19C9.4502 14.5623 10.5024 10.4997 12.1645 7.50755ZM14.2407 8.66082C12.7991 11.256 11.8252 14.9122 11.8252 19C11.8252 23.0878 12.7991 26.744 14.2407 29.3392C15.7204 32.003 17.4995 33.25 18.9999 33.25C20.5003 33.25 22.2794 32.003 23.7591 29.3392C25.2007 26.744 26.1747 23.0878 26.1747 19C26.1747 14.9122 25.2007 11.256 23.7591 8.66082C22.2794 5.99698 20.5003 4.75 18.9999 4.75C17.4995 4.75 15.7204 5.99698 14.2407 8.66082Z" fill="#34170E"/>
<path fill-rule="evenodd" clip-rule="evenodd" d="M7.73983 8.02062C8.11951 7.48586 8.8608 7.36014 9.39557 7.73982C12.0325 9.61204 15.3651 10.7372 19 10.7372C22.6349 10.7372 25.9675 9.61204 28.6045 7.73982C29.1392 7.36014 29.8805 7.48586 30.2602 8.02062C30.6399 8.55539 30.5142 9.29668 29.9794 9.67636C26.9401 11.8342 23.1269 13.1122 19 13.1122C14.8731 13.1122 11.0599 11.8342 8.02064 9.67636C7.48588 9.29668 7.36016 8.55539 7.73983 8.02062ZM8.02064 28.3236C11.0599 26.1658 14.8731 24.8878 19 24.8878C23.1269 24.8878 26.9401 26.1658 29.9794 28.3236C30.5142 28.7033 30.6399 29.4446 30.2602 29.9794C29.8805 30.5141 29.1392 30.6399 28.6045 30.2602C25.9675 28.388 22.6349 27.2628 19 27.2628C15.3651 27.2628 12.0325 28.388 9.39557 30.2602C8.8608 30.6399 8.11951 30.5141 7.73983 29.9794C7.36016 29.4446 7.48588 28.7033 8.02064 28.3236Z" fill="#34170E"/>
<path fill-rule="evenodd" clip-rule="evenodd" d="M17.8125 17.8125V3.5625H20.1875V17.8125H34.4375V20.1875H20.1875V34.4375H17.8125V20.1875H3.5625V17.8125H17.8125Z" fill="#34170E"/>
</svg>
