<?xml version="1.0" encoding="UTF-8"?>
<svg id="Mode_Isolation" data-name="Mode Isolation" xmlns="http://www.w3.org/2000/svg" viewBox="0 0 770.13 141.33">
  <defs>
    <style>
      .cls-1 {
        fill: #34180e;
        stroke-width: 0px;
      }
    </style>
  </defs>
  <path class="cls-1" d="M0,137.39V3.94h27.96v109.23h48.42v24.21H0Z"/>
  <path class="cls-1" d="M99.85,137.39V3.94h27.96v133.45h-27.96Z"/>
  <path class="cls-1" d="M154.28,70.76C154.28,27.21,177.36,0,214.34,0c29.28,0,50.11,18.96,54.62,49.92l-25.9,4.88c-3.19-19.14-13.7-30.59-28.72-30.59-19.71,0-32.09,17.64-32.09,46.55s13.89,46.17,36.04,46.17c17.83,0,31.16-13.51,34.35-35.66l26.28,4.32c-4.32,34.16-27.97,55.74-60.81,55.74-39.41,0-63.81-27.21-63.81-70.57Z"/>
  <path class="cls-1" d="M293.33,47.96c0-12.8,9.3-21.99,21.88-21.99s21.88,9.19,21.88,21.99-9.19,21.77-21.88,21.77-21.99-9.19-21.88-21.77ZM327.47,47.96c0-7.11-5.14-12.36-12.15-12.36s-12.36,5.25-12.36,12.36,5.25,12.14,12.36,12.14,12.15-5.03,12.15-12.14ZM316.96,107.7l-3.39-2.41,56.56-80.2,3.61,2.41-56.78,80.2ZM349.13,86.26c.11-12.8,9.3-21.99,21.88-21.99s21.88,9.19,21.88,21.99-9.19,21.77-21.88,21.77-21.88-9.19-21.88-21.77ZM383.27,86.26c0-7.11-5.14-12.36-12.15-12.36s-12.36,5.25-12.36,12.36,5.14,12.14,12.36,12.14,12.15-5.03,12.15-12.14Z"/>
  <path class="cls-1" d="M479.22,121.43l-5.82-22.9c-2.06-7.88-7.51-13.51-14.64-13.51h-16.7v52.36h-27.97V3.94h54.62c29.66,0,48.42,15.95,48.42,41.1,0,16.89-10.51,30.78-28.53,35.1v.19c6.94,3,10.32,8.82,12.2,16.52l4.32,17.64c.94,4.32,2.81,7.13,6.19,7.13,2.63,0,5.44-1.88,8.07-5.44l6.94,13.7c-6.01,6.76-15.02,10.7-24.21,10.7-12.39,0-20.08-7.69-22.9-19.14ZM442.06,65.13h24.4c13.7,0,22.71-7.7,22.71-19.71s-9.01-20.08-22.71-20.08h-24.4v39.79Z"/>
  <path class="cls-1" d="M547.72,137.39V3.94h34.53l47.67,100.04h.38V3.94h26.28v133.45h-34.72l-47.67-99.66h-.38v99.66h-26.09Z"/>
  <path class="cls-1" d="M687.17,137.39V3.94h81.08v22.9h-54.05v31.91h46.55v20.27h-46.55v35.66h55.93v22.71h-82.96Z"/>
</svg>