<svg width="16" height="16" viewBox="0 0 16 16" fill="none" xmlns="http://www.w3.org/2000/svg">
<path d="M15.8889 13.4444C15.8889 14.0928 15.6313 14.7145 15.1729 15.1729C14.7145 15.6313 14.0928 15.8889 13.4444 15.8889H2.44444C1.79614 15.8889 1.17438 15.6313 0.715961 15.1729C0.257539 14.7145 0 14.0928 0 13.4444V2.44444C0 1.79614 0.257539 1.17438 0.715961 0.715961C1.17438 0.257539 1.79614 0 2.44444 0H13.4444C14.0928 0 14.7145 0.257539 15.1729 0.715961C15.6313 1.17438 15.8889 1.79614 15.8889 2.44444V13.4444Z" fill="#D32D27"/>
<path d="M12.2221 6.76063H9.1665V3.70508H6.72206V6.76063H3.6665V9.16658H6.72206V12.2606H9.1665V9.16658H12.2221V6.76063Z" fill="white"/>
</svg>
