<svg width="43" height="53" viewBox="0 0 43 53" fill="none" xmlns="http://www.w3.org/2000/svg">
<path d="M36.2851 10.8152C38.1358 12.1084 40.2854 12.8409 42.5 12.9354V20.8201C38.5597 20.7231 34.731 19.3726 31.5155 16.9344L30.7134 16.3262V17.3328V35.4986C30.7134 35.4987 30.7134 35.4987 30.7134 35.4988C30.7124 38.7676 29.7684 41.9559 28.0109 44.6371C26.2535 47.3181 23.768 49.3625 20.89 50.5019C18.0126 51.6411 14.8765 51.8229 11.8999 51.0238C8.92283 50.2247 6.24261 48.4812 4.22013 46.0212C2.19737 43.5609 0.929962 40.502 0.591403 37.253C0.252839 34.004 0.859817 30.7242 2.32901 27.8531C3.79807 24.9823 6.05761 22.6597 8.80123 21.1914C11.416 19.7921 14.3539 19.2312 17.2567 19.5695V27.6047C15.9052 27.2904 14.4936 27.3671 13.1733 27.8335C11.6375 28.3761 10.3082 29.4166 9.37156 30.8007C8.43519 32.1845 7.9377 33.8428 7.94656 35.5389C7.95541 37.2351 8.4702 38.8876 9.42108 40.2605C10.3722 41.6338 11.7125 42.6587 13.254 43.1833C14.796 43.7081 16.4562 43.7037 17.9956 43.1709C19.5346 42.6382 20.87 41.6063 21.8146 40.2281C22.759 38.8503 23.2661 37.1952 23.267 35.499V35.4988V0.5H30.7196C30.7386 1.11662 30.7998 1.73122 30.9028 2.33901L30.9034 2.34267C31.2084 4.06506 31.8421 5.70494 32.7672 7.16191C33.6918 8.61812 34.8883 9.86163 36.2851 10.8152Z" fill="#34170E" stroke="#34170E"/>
</svg>
